<mxfile host="app.diagrams.net" modified="2023-10-06T12:25:27.369Z" agent="Mozilla/5.0 (Windows NT 10.0; Win64; x64; rv:109.0) Gecko/20100101 Firefox/118.0" etag="-TG3tX3pdAYGhEAvUOHi" version="22.0.3" type="github">
  <diagram name="Page-1" id="egkdRjGuplwJrO8aOdmm">
    <mxGraphModel dx="1434" dy="782" grid="1" gridSize="10" guides="1" tooltips="1" connect="1" arrows="1" fold="1" page="1" pageScale="1" pageWidth="850" pageHeight="1100" math="0" shadow="0">
      <root>
        <mxCell id="0" />
        <mxCell id="1" parent="0" />
        <mxCell id="aMJKOizpRc9o-GE-1GVx-4" style="edgeStyle=orthogonalEdgeStyle;rounded=0;orthogonalLoop=1;jettySize=auto;html=1;exitX=1;exitY=0.5;exitDx=0;exitDy=0;" edge="1" parent="1" source="aMJKOizpRc9o-GE-1GVx-1" target="aMJKOizpRc9o-GE-1GVx-2">
          <mxGeometry relative="1" as="geometry" />
        </mxCell>
        <mxCell id="aMJKOizpRc9o-GE-1GVx-1" value="&lt;div&gt;GDACS&lt;/div&gt;&lt;div&gt;Data source&lt;br&gt;&lt;/div&gt;" style="rounded=0;whiteSpace=wrap;html=1;" vertex="1" parent="1">
          <mxGeometry x="130" y="90" width="120" height="60" as="geometry" />
        </mxCell>
        <mxCell id="aMJKOizpRc9o-GE-1GVx-2" value="" style="shape=cylinder3;whiteSpace=wrap;html=1;boundedLbl=1;backgroundOutline=1;size=15;" vertex="1" parent="1">
          <mxGeometry x="460" y="200" width="60" height="80" as="geometry" />
        </mxCell>
      </root>
    </mxGraphModel>
  </diagram>
</mxfile>
